{"title":"Somebody Help Me 2 2010 DvDRip XviD Feel-Free","uid":6661318,"size":781564986,"categoryP":"video","categoryS":"movies","magnet":"?xt=urn:btih:adc9824083842203cf2c66a961f4847e9a774d35&amp;dn=Somebody+Help+Me+2+2010+DvDRip+XviD+Feel-Free&amp;tr=udp%3A%2F%2Ftracker.openbittorrent.com%3A80&amp;tr=udp%3A%2F%2Fopen.demonii.com%3A1337&amp;tr=udp%3A%2F%2Ftracker.coppersurfer.tk%3A6969&amp;tr=udp%3A%2F%2Fexodus.desync.com%3A6969","seeders":0,"leechers":0,"uploader":".BONE.","files":8,"time":1315518096,"description":"\nGenre:Horror | Mystery | Thriller\nLanguage:English\n &lt;a href=&quot;\nhttp://www.imdb.com/title/tt1760998/&quot; rel=&quot;nofollow&quot; target=&quot;_NEW&quot;&gt;\nhttp://www.imdb.com/title/tt1760998/&lt;/a&gt;\n\nSource:HORRORSPOKE Thanks!\n\nFormat : AVI\nFormat/Info : Audio Video Interleave\nFile size : 744 MiB\nDuration : 1h 25mn\nOverall bit rate : 1 211 Kbps\n\nVideo\nID : 0\nFormat : MPEG-4 Visual\nFormat profile : Advanced Simple@L5\nFormat settings, BVOP : Yes\nFormat settings, QPel : No\nFormat settings, GMC : No warppoints\nFormat settings, Matrix : Default (H.263)\nCodec ID : XVID\nCodec ID/Hint : XviD\nDuration : 1h 25mn\nBit rate : 976 Kbps\nWidth : 640 pixels\nHeight : 360 pixels\nDisplay aspect ratio : 16:9\nFrame rate : 29.970 fps\nColor space : YUV\nChroma subsampling : 4:2:0\nBit depth : 8 bits\nScan type : Progressive\nBits/(Pixel*Frame) : 0.141\nStream size : 599 MiB (81%)\nWriting library : XviD 1.2.1 (UTC 2008-12-04)\n\nAudio\nID : 1\nFormat : AC-3\nFormat/Info : Audio Coding 3\nMode extension : CM (complete main)\nCodec ID : 2000\nDuration : 1h 25mn\nBit rate mode : Constant\nBit rate : 224 Kbps\nChannel(s) : 2 channels\nChannel positions : Front: L R\nSampling rate : 48.0 KHz\nBit depth : 16 bits\nStream size : 138 MiB (18%)\nAlignment : Aligned on interleaves\nInterleave, duration : 33 ms (1.00 video frame)\nInterleave, preload duration : 512 ms\n\n\nPlot:\nBrendan and Darryl have both moved on with their lives following the events at the cabin in the woods; not unscathed however..\n &lt;a href=&quot;\nhttp://www.pix2links.com/images/31002223921107683707.png&quot; rel=&quot;nofollow&quot; target=&quot;_NEW&quot;&gt;\nhttp://www.pix2links.com/images/31002223921107683707.png&lt;/a&gt;\n &lt;a href=&quot;\nhttp://www.pix2links.com/images/67936744549981795943.png&quot; rel=&quot;nofollow&quot; target=&quot;_NEW&quot;&gt;\nhttp://www.pix2links.com/images/67936744549981795943.png&lt;/a&gt;\n &lt;a href=&quot;\nhttp://www.pix2links.com/images/72257216916881947749.png&quot; rel=&quot;nofollow&quot; target=&quot;_NEW&quot;&gt;\nhttp://www.pix2links.com/images/72257216916881947749.png&lt;/a&gt;","torrent":{"xt":"urn:btih:adc9824083842203cf2c66a961f4847e9a774d35","amp;dn":"Somebody+Help+Me+2+2010+DvDRip+XviD+Feel-Free","amp;tr":["udp%3A%2F%2Ftracker.openbittorrent.com%3A80","udp%3A%2F%2Fopen.demonii.com%3A1337","udp%3A%2F%2Ftracker.coppersurfer.tk%3A6969","udp%3A%2F%2Fexodus.desync.com%3A6969"],"infoHash":"adc9824083842203cf2c66a961f4847e9a774d35","infoHashBuffer":{"type":"Buffer","data":[173,201,130,64,131,132,34,3,207,44,102,169,97,244,132,126,154,119,77,53]},"announce":[],"urlList":[]}}